<svg width="704" height="595" viewBox="0 0 704 595" fill="none" xmlns="http://www.w3.org/2000/svg">
<g clip-path="url(#clip0_1_92)">
<path d="M573.352 287.169C573.352 295.53 573.002 303.806 572.3 311.997C571.747 318.391 570.993 324.728 570.038 331.007C569.022 337.655 567.778 344.224 566.305 350.712V350.72C565.342 354.99 564.284 359.225 563.132 363.426C559.789 375.636 555.631 387.609 550.687 399.262C549.612 401.797 548.502 404.315 547.357 406.815C543.026 416.284 538.176 425.506 532.83 434.44C517.836 459.528 499.12 482.184 477.323 501.633C474.964 503.734 472.573 505.801 470.149 507.833C418.686 550.897 353.733 574.441 286.676 574.338C128.347 574.338 7.62939e-06 445.77 7.62939e-06 287.169C7.62939e-06 128.568 128.347 -7.15661e-05 286.676 -7.15661e-05C351.424 -0.102339 414.282 21.8516 464.931 62.2572C467.305 64.1417 469.649 66.0687 471.963 68.038C483.257 77.6325 493.797 88.0832 503.49 99.2975H503.498C548.645 151.429 573.455 218.154 573.352 287.169Z" fill="#E0EAFF"/>
<path d="M84.6264 336.774C57.3171 320.492 36.7052 290.063 39.3811 258.342C64.3485 282.279 96.9635 296.598 131.456 298.766C144.761 299.554 159.641 299.042 169.436 308.098C175.53 313.732 178.367 322.215 178.832 330.51C179.297 338.804 177.638 347.054 175.988 355.196L176.556 357.19C144.776 357.31 111.936 353.055 84.6264 336.774Z" fill="#D2D2D2"/>
<path d="M40.0471 258.308C50.9893 282.27 69.1905 302.17 92.0656 315.18C96.9832 317.937 102.211 320.306 107.767 321.404C113.191 322.433 118.791 321.989 123.985 320.117C128.863 318.469 133.662 316.218 138.855 315.786C144.329 315.332 149.396 317.447 153.378 321.152C158.249 325.685 161.204 331.702 163.889 337.686C166.871 344.33 169.863 351.279 175.579 356.057C176.272 356.635 175.335 357.678 174.643 357.1C164.697 348.787 163.074 334.865 155.123 325.075C151.414 320.507 146.307 317.03 140.241 317.122C134.936 317.202 129.985 319.52 125.06 321.231C119.889 323.028 114.709 323.872 109.249 323.082C103.665 322.273 98.3334 320.104 93.367 317.485C82.1492 311.461 71.9466 303.708 63.1331 294.509C53.0161 284.067 44.7569 271.968 38.7129 258.736C38.3392 257.917 39.6758 257.494 40.0471 258.308Z" fill="white"/>
<path d="M84.4537 311.425C81.7537 314.973 77.8824 317.444 73.5313 318.397C69.1802 319.35 64.6326 318.723 60.7007 316.627C59.9065 316.2 60.5313 314.944 61.3265 315.372C64.9843 317.33 69.2205 317.914 73.2704 317.018C77.3203 316.122 80.9172 313.806 83.4119 310.487C83.9549 309.767 84.9936 310.709 84.4537 311.425Z" fill="white"/>
<path d="M121.621 321.279C120.485 312.23 115.986 303.943 109.02 298.069C108.33 297.488 109.267 296.445 109.956 297.025C117.193 303.151 121.858 311.785 123.02 321.204C123.13 322.102 121.731 322.172 121.621 321.279Z" fill="white"/>
<path d="M54.7531 283.408C56.0834 282.254 57.1065 280.786 57.7306 279.137C58.3547 277.488 58.5602 275.71 58.3287 273.962C58.2073 273.066 59.6067 272.997 59.7274 273.887C59.9742 275.82 59.7448 277.783 59.0593 279.607C58.3738 281.43 57.253 283.057 55.7949 284.346C55.6676 284.479 55.4945 284.559 55.3108 284.569C55.1271 284.579 54.9466 284.518 54.8059 284.399C54.6685 284.274 54.586 284.1 54.5761 283.915C54.5662 283.729 54.6298 283.547 54.7531 283.408Z" fill="white"/>
<path d="M127.779 196.887C127.871 197.444 127.963 198.001 128.065 198.564C129.337 206.05 131.213 213.421 133.677 220.603C133.858 221.161 134.051 221.724 134.248 222.276C140.367 239.516 149.628 255.468 161.56 269.321C166.313 274.829 171.477 279.967 177.009 284.691C184.648 291.213 193.449 297.676 198.347 306.098C198.868 306.971 199.334 307.875 199.743 308.806L178.941 356.342C178.84 356.426 178.749 356.515 178.647 356.6L177.903 358.536C177.601 358.313 177.292 358.074 176.99 357.85C176.814 357.721 176.643 357.582 176.467 357.453C176.351 357.364 176.236 357.274 176.126 357.2C176.087 357.17 176.049 357.14 176.021 357.115C175.912 357.041 175.818 356.961 175.719 356.891C173.99 355.563 172.267 354.221 170.55 352.864C170.539 352.859 170.539 352.859 170.533 352.843C157.48 342.469 145.177 330.913 135.016 317.853C134.711 317.46 134.394 317.063 134.098 316.648C129.551 310.736 125.493 304.461 121.966 297.887C120.047 294.28 118.311 290.579 116.765 286.797C112.789 277.017 110.373 266.672 109.606 256.14C108.081 235.145 113.276 213.895 126.739 198.084C127.084 197.68 127.424 197.286 127.779 196.887Z" fill="#D2D2D2"/>
<path d="M128.335 197.258C122.669 222.99 125.242 249.855 135.687 274.039C137.956 279.207 140.707 284.251 144.482 288.479C148.194 292.572 152.932 295.594 158.205 297.232C163.09 298.858 168.275 299.955 172.681 302.743C177.325 305.681 180.099 310.426 181.051 315.785C182.216 322.343 180.959 328.929 179.507 335.326C177.894 342.429 176.107 349.782 177.799 357.045C178.004 357.924 176.629 358.192 176.424 357.313C173.48 344.677 180.551 332.583 180.087 319.971C179.871 314.086 177.883 308.23 172.984 304.645C168.7 301.509 163.354 300.374 158.394 298.77C153.185 297.086 148.541 294.636 144.658 290.712C140.685 286.698 137.731 281.751 135.34 276.665C130.004 265.09 126.518 252.746 125.009 240.086C123.208 225.647 123.885 211.005 127.012 196.795C127.206 195.915 128.527 196.384 128.335 197.258Z" fill="white"/>
<path d="M131.866 266.451C127.577 267.655 123.001 267.294 118.954 265.43C114.907 263.567 111.653 260.323 109.774 256.279C109.396 255.459 110.65 254.833 111.028 255.654C112.771 259.423 115.803 262.444 119.575 264.172C123.347 265.899 127.611 266.219 131.598 265.073C132.464 264.826 132.727 266.204 131.866 266.451Z" fill="white"/>
<path d="M155.619 296.734C160.151 288.824 161.539 279.493 159.508 270.603C159.306 269.722 160.681 269.455 160.883 270.334C162.979 279.59 161.515 289.297 156.781 297.518C156.329 298.301 155.17 297.513 155.619 296.734Z" fill="white"/>
<path d="M124.99 226.168C126.747 226.049 128.446 225.494 129.935 224.554C131.424 223.614 132.657 222.318 133.523 220.782C133.965 219.994 135.123 220.783 134.685 221.566C133.72 223.258 132.357 224.688 130.714 225.73C129.071 226.772 127.198 227.396 125.259 227.545C125.077 227.575 124.891 227.534 124.738 227.431C124.586 227.328 124.478 227.171 124.437 226.991C124.402 226.809 124.441 226.62 124.545 226.466C124.648 226.312 124.809 226.205 124.99 226.168Z" fill="white"/>
<path d="M198.583 66.5574L233.671 478.011L163.495 483.296V71.7922C171.857 66.2495 183.861 65.3823 198.583 66.5574Z" fill="#9594A8"/>
<path d="M371.783 66.5574L336.695 478.011L406.871 483.296V71.7922C398.509 66.2495 386.505 65.3823 371.783 66.5574Z" fill="#9594A8"/>
<path d="M396.364 500.302H173.256C169.678 500.298 166.249 498.872 163.719 496.338C161.189 493.804 159.766 490.368 159.762 486.785V77.8308C159.766 74.2471 161.189 70.8114 163.719 68.2774C166.249 65.7434 169.678 64.318 173.256 64.3139H396.364C399.941 64.318 403.371 65.7434 405.901 68.2774C408.43 70.8114 409.853 74.2471 409.857 77.8308V486.785C409.853 490.368 408.43 493.804 405.901 496.338C403.371 498.872 399.941 500.298 396.364 500.302ZM173.256 68.8009C170.866 68.8035 168.575 69.7557 166.885 71.4486C165.195 73.1415 164.244 75.4367 164.242 77.8308V486.785C164.244 489.179 165.195 491.474 166.885 493.167C168.575 494.86 170.866 495.812 173.256 495.815H396.364C398.754 495.812 401.045 494.86 402.735 493.167C404.425 491.474 405.375 489.179 405.378 486.785V77.8308C405.375 75.4367 404.425 73.1415 402.735 71.4486C401.045 69.7558 398.754 68.8035 396.364 68.8009L173.256 68.8009Z" fill="#9594A8"/>
<path d="M407.618 132.367H162.002V136.854H407.618V132.367Z" fill="#9594A8"/>
<path d="M407.618 207.15H162.002V211.637H407.618V207.15Z" fill="#9594A8"/>
<path d="M241.707 66.5574H237.227V270.716H241.707V66.5574Z" fill="#9594A8"/>
<path d="M332.392 66.5574H327.913V270.716H332.392V66.5574Z" fill="#9594A8"/>
<path d="M435.613 512.641H141.472C136.126 512.641 130.999 510.514 127.219 506.727C123.438 502.941 121.315 497.805 121.315 492.45C121.315 487.095 123.438 481.959 127.219 478.172C130.999 474.386 136.126 472.258 141.472 472.258H435.613C440.959 472.258 446.086 474.386 449.867 478.172C453.647 481.959 455.77 487.095 455.77 492.45C455.77 497.805 453.647 502.941 449.867 506.727C446.086 510.514 440.959 512.641 435.613 512.641Z" fill="#9594A8"/>
<path d="M407.618 260.247H163.495V275.203H407.618V260.247Z" fill="#9594A8"/>
<path d="M242.402 307.847L242.092 307.697C225.45 299.644 203.657 299.651 171.428 307.724L171.084 307.81L170.981 307.469C167.572 296.271 163.709 283.588 170.965 277.348C171.067 259.037 187.101 244.168 206.796 244.168C226.487 244.168 242.52 259.029 242.627 277.335C253.42 285.602 248.277 297.817 242.576 307.55L242.402 307.847Z" fill="#2F2E41"/>
<path d="M344.688 268.638C344.39 270.121 343.77 271.522 342.873 272.74C341.976 273.958 340.823 274.964 339.496 275.687C338.169 276.411 336.7 276.834 335.191 276.927C333.683 277.02 332.173 276.781 330.767 276.226L271.956 335.428L266.709 317.046L325.119 262.068C326.206 259.764 328.099 257.94 330.44 256.941C332.78 255.941 335.404 255.837 337.817 256.646C340.229 257.456 342.26 259.124 343.527 261.334C344.793 263.544 345.206 266.143 344.688 268.638Z" fill="#FFB6B6"/>
<path d="M199.336 325.632C199.336 325.632 194 337.744 207.166 345.214C220.332 352.684 266.347 342.364 273.813 340.923C281.28 339.482 309.166 297.677 309.166 297.677L305.223 277.175L268.239 309.336L199.336 325.632Z" fill="#6C63FF"/>
<path d="M189.624 392.614L190.371 406.823C190.371 406.823 188.167 419.409 189.98 422.125C191.778 424.828 240.858 425.169 240.858 425.169C240.858 425.169 244.1 407.657 246.894 392.329L189.624 392.614Z" fill="#FFB6B6"/>
<path d="M330.733 580.486L340.994 578.41L338.057 536.894L322.914 539.958L330.733 580.486Z" fill="#FFB6B6"/>
<path d="M345.431 526.46L354.969 522.163L342.595 482.441L328.517 488.783L345.431 526.46Z" fill="#FFB6B6"/>
<path d="M353.74 504.078L335.779 514.265L291.485 442.965C260.39 463.95 229.983 474 199.33 479.363C188.966 481.211 178.4 480.274 176.41 469.708C176.317 469.214 176.243 468.717 176.188 468.218C174.964 456.676 189.296 441.883 191.118 427.762L230.342 425.403L235.179 431.616L280.54 403.679C289.662 398.061 301.661 401.1 307.339 410.466C307.639 410.961 307.917 411.468 308.174 411.987L353.74 504.078Z" fill="#2F2E41"/>
<path d="M342.747 552.043L322.195 553.956L284.933 477.616C247.982 483.982 213.122 486.021 182.969 478.32C172.761 475.749 166.52 465.19 169.031 454.735C169.149 454.247 169.284 453.763 169.438 453.285C173.047 442.256 182.493 434.452 189.935 422.322L244.297 423.149L238.225 444.135L291.034 437.289C301.654 435.913 311.353 443.613 312.697 454.488C312.768 455.062 312.814 455.639 312.836 456.218L342.747 552.043Z" fill="#2F2E41"/>
<path d="M210.851 296.994C223.042 296.994 232.924 287.094 232.924 274.882C232.924 262.67 223.042 252.77 210.851 252.77C198.659 252.77 188.777 262.67 188.777 274.882C188.777 287.094 198.659 296.994 210.851 296.994Z" fill="#FFB6B6"/>
<path d="M197.91 304.976L218.149 307.361C219.003 307.462 219.804 307.827 220.441 308.405C221.077 308.983 221.518 309.746 221.702 310.587L224.92 325.341L244.985 349.01C244.985 349.01 252.19 362.543 249.488 377.88C246.787 393.217 245.599 404.614 245.599 404.614C245.599 404.614 191.776 424.829 189.974 422.122C188.173 419.416 187.589 407.122 187.589 407.122L180.384 326.827C180.384 326.827 188.489 313.295 192.992 313.295C195.899 313.197 195.526 306.644 197.91 304.976Z" fill="#6C63FF"/>
<path d="M246.146 409.55C248.985 409.55 251.286 406.784 251.286 403.373C251.286 399.961 248.985 397.195 246.146 397.195C243.308 397.195 241.007 399.961 241.007 403.373C241.007 406.784 243.308 409.55 246.146 409.55Z" fill="#6C63FF"/>
<path d="M325.642 569.796L341.284 561.943L344.233 568.833L364.014 572.839C364.991 573.037 365.879 573.542 366.549 574.281C367.219 575.02 367.636 575.955 367.738 576.948C367.84 577.941 367.623 578.941 367.118 579.802C366.612 580.663 365.846 581.339 364.93 581.732L345.817 589.939L339.606 584.538L341.236 591.906L334.03 595L325.642 569.796Z" fill="#2F2E41"/>
<path d="M340.954 523.155L356.456 515.027L359.525 521.864L379.374 525.521C380.354 525.701 381.251 526.191 381.934 526.918C382.617 527.645 383.05 528.572 383.169 529.564C383.289 530.555 383.089 531.559 382.599 532.428C382.109 533.297 381.354 533.987 380.445 534.397L361.48 542.939L355.175 537.648L356.935 544.986L349.784 548.207L340.954 523.155Z" fill="#2F2E41"/>
<path d="M198.239 267.946C192.407 267.955 186.715 266.157 181.945 262.796L181.786 262.685V262.49C181.792 256.839 184.036 251.422 188.025 247.426C192.013 243.431 197.421 241.183 203.062 241.177H212.021C217.662 241.183 223.07 243.431 227.059 247.426C231.048 251.422 233.291 256.839 233.298 262.49C233.292 263.783 232.782 265.023 231.877 265.946C230.972 266.868 229.743 267.4 228.452 267.428L198.742 267.941C198.575 267.944 198.406 267.946 198.239 267.946Z" fill="#2F2E41"/>
<path d="M234.791 258.397C237.647 256.745 238.125 252.216 235.857 248.281C233.589 244.347 229.435 242.497 226.579 244.149C223.722 245.801 223.245 250.33 225.513 254.264C227.78 258.199 231.934 260.049 234.791 258.397Z" fill="#2F2E41"/>
<path d="M190.115 254.008C193.322 250.795 194.031 246.297 191.698 243.96C189.366 241.624 184.876 242.334 181.669 245.547C178.462 248.759 177.752 253.258 180.085 255.594C182.417 257.93 186.908 257.22 190.115 254.008Z" fill="#2F2E41"/>
<path d="M385.474 456.18H363.441C362.944 456.179 362.453 456.286 362.002 456.495C361.55 456.704 361.15 457.009 360.829 457.389C360.017 457.24 359.18 457.285 358.388 457.522C357.597 457.759 356.872 458.181 356.275 458.753C355.678 459.325 355.224 460.03 354.952 460.811C354.679 461.593 354.596 462.428 354.708 463.248C354.82 464.068 355.125 464.85 355.597 465.529C356.069 466.208 356.696 466.765 357.425 467.155C358.154 467.545 358.965 467.755 359.791 467.77C360.617 467.785 361.435 467.604 362.177 467.241L364.005 473.189C364.221 473.894 364.657 474.511 365.25 474.949C365.842 475.387 366.559 475.623 367.295 475.623H381.62C382.356 475.623 383.073 475.387 383.665 474.949C384.257 474.511 384.694 473.894 384.91 473.189L388.764 460.643C388.923 460.127 388.958 459.581 388.868 459.049C388.777 458.517 388.563 458.014 388.243 457.58C387.923 457.145 387.506 456.793 387.025 456.55C386.544 456.306 386.013 456.18 385.474 456.18ZM359.9 466.275C358.91 466.275 357.96 465.882 357.26 465.18C356.56 464.479 356.167 463.528 356.167 462.536C356.167 461.545 356.56 460.594 357.26 459.892C357.96 459.191 358.91 458.797 359.9 458.797C359.968 458.797 360.031 458.814 360.099 458.817C359.95 459.419 359.968 460.05 360.151 460.643L361.727 465.776C361.172 466.099 360.542 466.271 359.9 466.275Z" fill="#3F3D56"/>
<path d="M287.089 439.946C285.584 440.085 284.067 439.893 282.645 439.381C281.223 438.87 279.93 438.053 278.857 436.987C277.785 435.921 276.958 434.632 276.437 433.211C275.915 431.791 275.711 430.273 275.838 428.765L202.348 389.315L218.422 379.006L287.756 419.283C290.272 419.665 292.56 420.958 294.187 422.917C295.814 424.876 296.667 427.365 296.585 429.912C296.502 432.459 295.49 434.887 293.74 436.736C291.99 438.586 289.623 439.728 287.089 439.946Z" fill="#FFB6B6"/>
<path d="M190.88 316.818C190.88 316.818 177.766 315.173 174.4 329.95C171.034 344.727 194.106 385.923 197.626 392.674C201.147 399.426 249.126 414.191 249.126 414.191L267.601 404.525L226.234 378.262L190.88 316.818Z" fill="#6C63FF"/>
<path d="M283.317 255.76H287.796C289.974 255.76 292.063 256.626 293.603 258.169C295.143 259.712 296.008 261.804 296.008 263.986H275.105C275.105 261.804 275.97 259.712 277.51 258.169C279.05 256.626 281.139 255.76 283.317 255.76Z" fill="#9594A8"/>
<path d="M141.279 102.278C165.787 102.278 185.655 82.376 185.655 57.8254C185.655 33.2748 165.787 13.3727 141.279 13.3727C116.77 13.3727 96.9023 33.2748 96.9023 57.8254C96.9023 82.376 116.77 102.278 141.279 102.278Z" fill="#FF6584"/>
<path d="M277.149 55.5088C265.405 43.1677 251.765 31.9093 235.618 25.96C231.121 24.2958 226.457 23.1218 221.708 22.4584C221.67 22.4532 221.634 22.4609 221.596 22.4578C221.519 22.4379 221.44 22.4225 221.361 22.4117C214.72 21.5641 207.978 21.9718 201.486 23.6136C198.312 24.4116 195.215 25.4924 192.233 26.8429C189.24 28.3055 186.34 29.9519 183.549 31.7724C177.643 35.3141 171.14 37.7442 164.361 38.9431C160.958 39.5568 157.512 39.8956 154.055 39.9563C151.056 40.0166 148.227 40.121 145.385 41.2065C142.349 42.35 139.623 44.1884 137.422 46.575C135.222 48.9616 133.609 51.8304 132.712 54.9524C132.643 55.2305 132.663 55.5233 132.771 55.7887C132.879 56.0541 133.068 56.2783 133.311 56.429C134.08 56.9805 134.83 57.6062 135.637 58.0976C136.356 58.427 137.123 58.6367 137.909 58.7183C139.193 58.9897 140.479 59.2532 141.766 59.5087C146.509 60.45 151.271 61.2833 156.054 62.0085C165.73 63.4758 175.459 64.5094 185.239 65.1093C204.833 66.2982 224.495 65.7063 243.982 63.3408C254.934 62.012 265.812 60.1273 276.573 57.6941C276.791 57.6303 276.989 57.5112 277.147 57.3483C277.305 57.1854 277.419 56.9843 277.477 56.7644C277.535 56.5445 277.535 56.3134 277.478 56.0934C277.42 55.8734 277.307 55.6721 277.149 55.5088Z" fill="#D2D2D2"/>
<path d="M143.385 85.2303C138.887 83.5661 134.224 82.3921 129.475 81.7287C129.437 81.7235 129.4 81.7312 129.362 81.7282C129.285 81.7082 129.207 81.6928 129.128 81.682C122.486 80.8344 115.745 81.2421 109.253 82.884C106.078 83.682 102.981 84.7627 99.999 86.1132C97.0061 87.5759 94.1061 89.2222 91.3157 91.0428C85.4092 94.5844 78.9062 97.0145 72.1273 98.2134C68.7247 98.8271 65.2783 99.1659 61.8215 99.2267C58.822 99.2869 55.9934 99.3913 53.1516 100.477C50.1159 101.62 47.3891 103.459 45.1887 105.845C42.9883 108.232 41.3752 111.101 40.4782 114.223C40.4091 114.501 40.4299 114.794 40.5377 115.059C40.6455 115.324 40.8347 115.549 41.078 115.699C41.8468 116.251 42.5962 116.876 43.4038 117.368C44.1223 117.697 44.8897 117.907 45.6757 117.989C46.9598 118.26 48.2456 118.523 49.5329 118.779C54.2756 119.72 59.038 120.554 63.8201 121.279C73.4965 122.746 83.2251 123.78 93.006 124.38C112.6 125.568 132.261 124.977 151.749 122.611C162.701 121.282 173.578 119.398 184.34 116.964C184.557 116.901 184.755 116.781 184.914 116.619C185.072 116.456 185.186 116.255 185.244 116.035C185.302 115.815 185.302 115.584 185.244 115.364C185.187 115.144 185.074 114.942 184.915 114.779C173.171 102.438 159.532 91.1797 143.385 85.2303Z" fill="#D2D2D2"/>
<path d="M463.402 416.618L429.276 371.71L402.349 386.962L459.409 454.837L463.402 416.618Z" fill="#3F3D56"/>
<path d="M542.012 343.615C542.77 362.436 545.681 381.106 550.687 399.262C549.612 401.797 548.502 404.315 547.358 406.815C543.026 416.284 538.176 425.506 532.83 434.44C517.836 459.528 499.12 482.184 477.323 501.633C474.964 503.735 472.573 505.801 470.149 507.833C456.33 488.748 448.872 467.689 445.923 446.017C445.55 443.265 445.244 440.483 445.013 437.716V437.701C444.446 430.976 444.264 424.225 444.468 417.479C444.475 416.941 444.49 416.395 444.512 415.849C444.774 408.64 445.423 401.416 446.401 394.259V394.251C446.513 393.429 446.625 392.606 446.752 391.784C447.11 389.316 447.514 386.848 447.954 384.395C450.518 370.248 454.095 356.305 458.66 342.673V342.666C458.787 342.269 458.913 341.88 459.055 341.492C459.548 340.011 460.048 338.545 460.563 337.079C460.595 336.965 460.635 336.852 460.683 336.743C461.347 334.828 462.027 332.929 462.721 331.044C462.907 330.521 463.102 329.997 463.303 329.474C464.087 327.373 464.886 325.286 465.7 323.23C465.953 322.571 466.215 321.913 466.476 321.263C466.678 320.762 466.872 320.261 467.081 319.767V319.76C468.268 316.821 469.47 313.939 470.687 311.115C474.098 303.173 477.607 295.702 481.026 288.814L481.034 288.807C495.226 260.292 508.126 241.775 508.126 241.775L556.57 257.48C550.792 267.748 546.32 282.891 543.871 300.757C541.984 314.957 541.362 329.297 542.012 343.608L542.012 343.615Z" fill="#3F3D56"/>
<path d="M461.496 339.046C461.213 338.381 460.892 337.73 460.563 337.079C458.86 333.777 456.668 330.751 454.061 328.105C453.673 327.709 453.269 327.313 452.851 326.939C448.355 322.79 442.886 319.843 436.952 318.371C431.017 316.899 424.808 316.95 418.898 318.518L418.868 318.533L418.644 318.593L418.697 318.847C418.921 320.032 419.245 321.195 419.667 322.325C419.779 322.631 419.906 322.923 420.033 323.215C420.085 323.349 420.152 323.469 420.212 323.603C420.212 323.603 420.205 323.611 420.22 323.611C420.22 323.618 420.227 323.626 420.227 323.633C420.369 323.91 420.503 324.194 420.653 324.463C420.346 324.172 420.055 323.873 419.772 323.566C419.495 323.282 419.242 322.983 418.988 322.684C418.118 321.667 417.331 320.582 416.636 319.438L416.517 319.236L416.308 319.318C413.49 320.296 410.803 321.615 408.305 323.244L408.036 323.424C406.128 324.678 403.979 325.517 401.727 325.886C399.475 326.254 397.17 326.144 394.964 325.563C391.485 324.664 387.857 324.5 384.311 325.081C380.765 325.661 377.379 326.974 374.366 328.935C372.371 330.239 370.567 331.814 369.006 333.617C368.872 333.774 368.737 333.939 368.603 334.096C368.319 334.44 368.05 334.791 367.789 335.15C364.983 338.907 363.26 343.364 362.81 348.035L362.795 348.207L362.937 348.304C365.462 350.039 368.32 351.23 371.328 351.804C369.438 352.069 367.525 352.116 365.624 351.946H365.617C364.755 351.875 363.897 351.755 363.049 351.587L362.892 351.558H362.884L362.69 351.52L362.72 351.879C362.943 356.449 364.378 360.876 366.878 364.705L366.953 364.809C366.981 364.847 367.005 364.887 367.028 364.929C368.087 366.552 368.968 368.284 369.656 370.096C371.401 374.6 371.785 379.518 370.76 384.238C369.601 389.287 369.986 394.568 371.867 399.394C373.747 404.221 377.035 408.367 381.302 411.295C385.05 413.878 389.418 415.414 393.956 415.744C394.575 415.797 395.203 415.827 395.83 415.827C399.42 415.838 402.972 415.096 406.259 413.65L406.378 413.605L406.408 413.471C407.04 411.427 407.928 409.472 409.051 407.653C408.684 409.087 408.498 410.562 408.499 412.042V412.536L408.924 412.289C409.29 412.072 409.663 411.841 409.999 411.624C412.016 410.305 413.842 408.714 415.427 406.897C416.046 406.179 416.673 405.484 417.33 404.788L417.338 404.781C418.614 403.42 419.966 402.089 421.369 400.817C424.355 398.131 427.551 395.688 430.925 393.511C434.297 391.342 437.823 389.423 441.474 387.768H441.481C441.892 387.573 442.31 387.386 442.721 387.207C444.539 386.414 446.289 385.474 447.954 384.395C448.014 384.358 448.066 384.328 448.118 384.29C455.335 379.557 460.641 372.411 463.091 364.126C465.541 355.841 464.976 346.953 461.496 339.046Z" fill="#6C63FF"/>
<path opacity="0.15" d="M371.99 394.856C371.787 395.765 371.632 396.685 371.528 397.611C370.138 393.211 369.937 388.521 370.944 384.018C371.1 383.329 371.216 382.632 371.307 381.931C372.687 386.1 372.923 390.564 371.99 394.856Z" fill="black"/>
<path opacity="0.15" d="M372.555 362.417C370.344 362.724 368.101 362.735 365.887 362.448C365.307 361.353 364.806 360.217 364.389 359.05C366.854 360.716 369.633 361.862 372.555 362.417Z" fill="black"/>
<path opacity="0.15" d="M365.71 351.706C364.893 353.797 364.351 355.985 364.096 358.216C363.415 356.092 363.013 353.887 362.9 351.659L362.882 351.3L363.234 351.368C364.053 351.522 364.879 351.635 365.71 351.706Z" fill="black"/>
<path opacity="0.15" d="M374.559 328.713C377.568 326.749 380.952 325.434 384.497 324.853C388.041 324.271 391.667 324.436 395.145 325.336C397.352 325.921 399.658 326.033 401.911 325.665C404.165 325.297 406.316 324.457 408.224 323.201L408.493 323.023C410.989 321.389 413.676 320.068 416.492 319.088L416.707 319.013L416.825 319.208C417.938 321.052 419.288 322.743 420.838 324.237C419.896 322.479 419.237 320.584 418.884 318.621L418.833 318.362L419.088 318.294C424.631 316.825 430.442 316.689 436.047 317.897C441.652 319.106 446.893 321.625 451.342 325.248C455.79 328.872 459.321 333.498 461.645 338.749C463.968 344 465.02 349.726 464.714 355.462C463.538 350.786 461.448 346.39 458.564 342.529C455.68 338.669 452.06 335.42 447.913 332.971C443.767 330.522 439.176 328.921 434.408 328.262C429.639 327.604 424.787 327.899 420.134 329.132L419.879 329.2L419.93 329.459C420.283 331.422 420.942 333.318 421.884 335.075C420.334 333.581 418.984 331.89 417.871 330.046L417.753 329.851L417.538 329.926C414.722 330.906 412.036 332.227 409.54 333.861L409.27 334.039C407.362 335.296 405.211 336.135 402.958 336.503C400.704 336.871 398.398 336.759 396.191 336.175C390.411 334.672 384.291 335.225 378.872 337.738C373.454 340.25 369.074 344.568 366.478 349.954C365.323 349.398 364.202 348.771 363.124 348.077L362.977 347.984L362.995 347.812C363.366 343.963 364.599 340.247 366.601 336.941C368.603 333.634 371.323 330.822 374.559 328.713Z" fill="black"/>
<path d="M652.099 137.632L651.39 137.16L650.875 137.834C646.888 142.862 643.716 148.487 641.475 154.503C641.785 147.572 642.994 140.712 645.074 134.094L645.298 133.399L644.656 133.032C636.303 128.294 627.402 124.598 618.153 122.024L617.145 121.755C610.057 119.807 603.457 116.383 597.778 111.709C592.099 107.034 587.467 101.212 584.185 94.6236C576.558 79.5028 564.508 67.0717 549.645 58.9891C534.781 50.9065 517.81 47.5568 500.997 49.387H500.989C500.81 49.402 500.623 49.4244 500.444 49.4469C500.138 49.4768 499.839 49.5142 499.541 49.5516C498.929 49.6338 498.331 49.7161 497.734 49.8058C497.227 49.8806 496.711 49.9629 496.204 50.0526C495.935 50.09 495.674 50.1349 495.412 50.1872C495.151 50.2321 494.882 50.277 494.621 50.3293H494.614C489.601 51.2791 484.687 52.6936 479.936 54.5546H479.929V54.562L478.727 55.0332C477.488 55.5417 476.258 56.0801 475.039 56.6485C474.763 56.7756 474.494 56.9102 474.218 57.0374C474.143 57.0747 474.061 57.1121 473.986 57.157C473.202 57.5309 472.426 57.9198 471.657 58.3311C471.545 58.3835 471.433 58.4433 471.321 58.5031L470.604 58.8845C469.029 59.737 467.481 60.6419 465.961 61.5992C465.834 61.6739 465.715 61.7487 465.588 61.831C465.453 61.9207 465.311 62.0105 465.177 62.1002C465.095 62.1451 465.013 62.2049 464.931 62.2573C464.699 62.3993 464.475 62.5489 464.251 62.706C463.803 62.9976 463.355 63.2967 462.915 63.6034C462.46 63.91 462.012 64.2315 461.564 64.5531L461.116 64.8747L461.198 65.4281C461.273 65.8843 461.34 66.3404 461.422 66.7891C461.497 67.2378 461.571 67.6791 461.653 68.1203C461.78 68.8606 461.922 69.5935 462.064 70.304C462.161 70.7751 462.251 71.2388 462.355 71.6949C462.452 72.1661 462.557 72.6372 462.669 73.1083C462.885 74.0805 463.117 75.0228 463.363 75.9501C463.482 76.4138 463.609 76.8774 463.744 77.3336C463.818 77.6103 463.893 77.887 463.975 78.1562C464.035 78.3432 464.095 78.5302 464.154 78.7171C464.169 78.7769 464.184 78.8442 464.207 78.9115C464.223 78.9749 464.243 79.0373 464.266 79.0985C464.348 79.3753 464.43 79.6445 464.513 79.9062C464.557 80.0483 464.602 80.1903 464.654 80.325C464.759 80.6465 464.871 80.9756 464.983 81.2897C465.102 81.6486 465.229 82.0076 465.356 82.3591C465.386 82.4488 465.416 82.5311 465.446 82.6208C465.468 82.6881 465.491 82.7554 465.52 82.8227C465.55 82.8975 465.58 82.9798 465.61 83.0546C465.737 83.3911 465.864 83.7351 465.998 84.0716C466.043 84.1913 466.088 84.3184 466.14 84.4381C467.35 87.4846 468.837 90.4135 470.582 93.1877C468.648 91.5275 466.787 89.7676 464.998 87.908C462.235 85.0327 459.69 81.9556 457.383 78.7022C457.196 78.4479 457.01 78.1862 456.838 77.9244C456.487 77.4234 456.144 76.9223 455.808 76.4138C455.449 75.8903 455.106 75.3444 454.77 74.8059C454.546 74.447 454.322 74.0805 454.106 73.7216C453.889 73.3776 453.688 73.041 453.493 72.697L452.911 71.6949H452.904V71.7024L452.083 72.51C451.754 72.8317 451.426 73.1532 451.105 73.4747C441.07 83.5879 433.803 96.1168 429.999 109.857L429.887 110.268L429.776 110.695C429.559 111.457 429.343 112.198 429.111 112.953V112.96C428.887 113.708 428.648 114.456 428.394 115.189C428.163 115.884 427.924 116.573 427.67 117.261C427.588 117.492 427.499 117.724 427.402 117.956C427.245 118.405 427.073 118.846 426.901 119.295C426.819 119.497 426.737 119.706 426.655 119.908C426.453 120.401 426.252 120.895 426.05 121.381C426.02 121.456 425.983 121.538 425.946 121.613C425.886 121.762 425.819 121.912 425.759 122.054C425.602 122.413 425.438 122.78 425.281 123.139C425.169 123.37 425.065 123.61 424.96 123.841C424.915 123.946 424.863 124.051 424.818 124.156C424.542 124.754 424.258 125.345 423.96 125.928C423.624 126.616 423.281 127.304 422.915 127.977C422.594 128.605 422.258 129.218 421.907 129.832C421.302 130.916 420.668 131.993 420.011 133.04C419.757 133.444 419.503 133.848 419.242 134.251C419.182 134.349 419.122 134.446 419.062 134.536C418.846 134.887 418.622 135.224 418.391 135.568C418.234 135.799 418.077 136.031 417.92 136.256C417.659 136.659 417.383 137.048 417.099 137.43C417.024 137.549 416.942 137.662 416.86 137.774C416.442 138.357 416.024 138.925 415.599 139.494C415.584 139.501 415.584 139.509 415.576 139.516C415.561 139.516 415.561 139.524 415.554 139.531C415.367 139.778 415.18 140.025 414.986 140.264C414.733 140.615 414.456 140.959 414.18 141.296C413.732 141.864 413.262 142.44 412.784 143.001C412.769 143.016 412.762 143.031 412.747 143.038C410.273 145.95 407.594 148.679 404.729 151.205C404.676 151.25 404.639 151.295 404.587 151.332C404.184 151.683 403.781 152.035 403.363 152.379C403.191 152.521 403.019 152.663 402.847 152.805C402.564 153.045 402.273 153.284 401.989 153.501C401.955 153.535 401.918 153.565 401.877 153.59C401.623 153.8 401.377 153.994 401.123 154.189C400.817 154.435 400.511 154.667 400.197 154.899C398.719 156.021 397.201 157.08 395.643 158.077C395.412 158.234 395.165 158.392 394.926 158.541C394.785 158.631 394.643 158.721 394.508 158.795C393.941 159.147 393.374 159.491 392.806 159.82C392.239 160.156 391.657 160.478 391.082 160.792C389.85 161.465 388.633 162.168 387.446 162.901C386.849 163.275 386.252 163.649 385.662 164.03C383.318 165.556 381.06 167.189 378.89 168.929C376.721 170.67 374.64 172.519 372.657 174.47C372.41 174.709 372.164 174.956 371.918 175.21C371.425 175.696 370.947 176.19 370.492 176.684C369.76 177.439 369.058 178.217 368.364 179.002C364.703 183.163 361.462 187.677 358.689 192.478C357.296 194.875 356.03 197.344 354.896 199.874C354.038 201.766 353.254 203.703 352.545 205.662C352.074 206.971 351.634 208.292 351.223 209.626C351.022 210.291 350.828 210.964 350.641 211.637C350.006 213.918 349.476 216.222 349.043 218.532C348.692 220.387 348.409 222.244 348.192 224.104C348.08 225.039 347.991 225.973 347.909 226.901C347.716 229.18 347.618 231.461 347.614 233.745C347.601 240.596 348.432 247.423 350.088 254.07C350.454 255.535 350.86 256.994 351.305 258.444C351.529 259.17 351.768 259.888 352.007 260.606C352.612 262.4 353.281 264.178 354.015 265.938C354.456 266.992 354.919 268.039 355.404 269.079C358.488 275.687 362.423 281.862 367.11 287.445C367.879 288.365 368.673 289.27 369.491 290.16C369.499 290.16 369.491 290.168 369.491 290.168C371.523 292.387 373.674 294.494 375.934 296.479H375.942C376.845 297.279 377.763 298.055 378.696 298.805C378.704 298.798 378.704 298.805 378.704 298.805C379.645 299.568 380.593 300.301 381.563 301.011C382.048 301.363 382.541 301.714 383.041 302.066C384.019 302.761 385.017 303.432 386.035 304.077H386.042C387.058 304.735 388.088 305.364 389.133 305.962C391.231 307.166 393.381 308.295 395.591 309.32L395.964 309.492L396.345 309.32C399.888 307.722 403.541 306.38 407.274 305.304C408.096 305.064 408.924 304.848 409.746 304.638C411.821 304.122 413.911 303.688 416.017 303.337C413.965 304.368 411.985 305.534 410.089 306.829C408.618 307.824 407.17 308.908 405.714 310.105C405.229 310.501 404.744 310.913 404.258 311.331L403.049 312.378L404.564 312.879C405.117 313.059 405.669 313.238 406.222 313.403C406.976 313.642 407.722 313.859 408.454 314.061C410.052 314.51 411.659 314.906 413.277 315.25C413.672 315.332 414.061 315.415 414.456 315.497C415.225 315.646 416.002 315.796 416.778 315.931C416.81 315.939 416.842 315.944 416.875 315.945C417.681 316.08 418.495 316.207 419.301 316.319C420.802 316.536 422.303 316.708 423.803 316.835C423.967 316.858 424.132 316.865 424.303 316.873C424.669 316.903 425.027 316.933 425.393 316.955C426.2 317.007 427.013 317.045 427.827 317.075C427.887 317.075 427.939 317.082 427.999 317.082C428.409 317.097 428.82 317.112 429.231 317.12C429.231 317.12 429.231 317.127 429.238 317.12C429.649 317.127 430.059 317.135 430.47 317.135H432.739C433.165 317.135 433.59 317.142 434.023 317.142C434.621 317.142 435.225 317.15 435.823 317.157C435.979 317.157 436.144 317.164 436.308 317.164C437.263 317.179 438.219 317.202 439.175 317.224C439.234 317.224 439.294 317.232 439.354 317.232C440.309 317.262 441.265 317.292 442.221 317.336C442.43 317.344 442.639 317.351 442.855 317.366C443.773 317.404 444.692 317.449 445.61 317.501C445.871 317.516 446.14 317.538 446.409 317.553C447.103 317.591 447.805 317.636 448.499 317.688C448.91 317.71 449.313 317.74 449.723 317.778C451.381 317.905 453.031 318.047 454.688 318.211C455.24 318.256 455.793 318.316 456.345 318.376C457.824 318.533 459.307 318.705 460.795 318.892C461.459 318.967 462.124 319.056 462.788 319.146C462.863 319.154 462.937 319.161 463.012 319.176C463.833 319.288 464.647 319.4 465.468 319.52C466.006 319.595 466.543 319.677 467.081 319.759C467.633 319.842 468.186 319.924 468.738 320.021C469.037 320.066 469.335 320.118 469.641 320.171C470.358 320.283 471.082 320.403 471.806 320.537C471.872 320.544 471.936 320.554 472.001 320.567C473.538 320.836 475.084 321.121 476.622 321.427C477.525 321.599 478.421 321.779 479.317 321.966C480.019 322.108 480.72 322.257 481.422 322.407C481.542 322.429 481.661 322.459 481.78 322.489C481.807 322.497 481.835 322.502 481.863 322.504C482.923 322.736 483.99 322.975 485.05 323.229C488.731 324.082 492.406 325.029 496.077 326.071C496.92 326.303 497.764 326.55 498.608 326.797C498.966 326.901 499.317 327.006 499.668 327.111C500.399 327.328 501.124 327.544 501.855 327.776C502.497 327.971 503.147 328.173 503.789 328.382C504.192 328.509 504.595 328.636 504.998 328.771C505.625 328.965 506.252 329.167 506.872 329.384C507.402 329.549 507.925 329.721 508.447 329.908C509.194 330.154 509.948 330.409 510.694 330.678C510.911 330.753 511.135 330.827 511.351 330.91C512.262 331.224 513.173 331.545 514.084 331.882C514.972 332.203 515.861 332.532 516.741 332.862C517.354 333.093 517.966 333.318 518.571 333.557C519.25 333.819 519.929 334.081 520.601 334.35C521.572 334.731 522.55 335.12 523.52 335.516C524.416 335.875 525.304 336.242 526.2 336.623C526.365 336.69 526.536 336.758 526.7 336.833C527.477 337.154 528.253 337.491 529.022 337.827C529.522 338.037 530.015 338.253 530.508 338.47C532.658 339.413 534.806 340.387 536.951 341.394H536.958C538.302 342.03 539.668 342.636 541.042 343.212C541.363 343.346 541.684 343.481 542.012 343.608C542.557 343.84 543.11 344.057 543.662 344.281C544.021 344.423 544.379 344.565 544.745 344.7C545.275 344.909 545.812 345.111 546.35 345.306C546.917 345.515 547.477 345.724 548.052 345.919C548.253 345.994 548.455 346.061 548.664 346.136C549.329 346.36 549.993 346.584 550.665 346.801C550.732 346.824 550.799 346.846 550.874 346.868C551.576 347.093 552.277 347.317 552.987 347.527C553.043 347.547 553.1 347.565 553.158 347.579C553.92 347.811 554.696 348.035 555.465 348.252C556.6 348.566 557.742 348.865 558.884 349.142C559.093 349.194 559.303 349.247 559.512 349.292C560.124 349.441 560.728 349.583 561.341 349.718C561.99 349.867 562.647 350.002 563.297 350.137C563.953 350.271 564.611 350.406 565.26 350.525C565.611 350.593 565.962 350.66 566.305 350.72L567.223 350.877C567.858 350.989 568.493 351.086 569.135 351.191C569.152 351.19 569.17 351.193 569.187 351.199C569.911 351.311 570.628 351.415 571.352 351.505C572.046 351.602 572.74 351.685 573.435 351.767C573.577 351.782 573.726 351.797 573.875 351.812C574.45 351.879 575.025 351.946 575.6 351.999C575.764 352.014 575.928 352.029 576.092 352.044C576.66 352.096 577.227 352.148 577.795 352.186C577.908 352.201 578.023 352.208 578.138 352.208C578.646 352.253 579.153 352.29 579.661 352.313C580.019 352.343 580.37 352.358 580.729 352.38C580.915 352.388 581.094 352.395 581.281 352.403C581.774 352.432 582.266 352.447 582.767 352.462C583.371 352.485 583.976 352.5 584.573 352.515C585.297 352.53 586.029 352.537 586.753 352.537H586.768C587.477 352.537 588.194 352.53 588.903 352.515H589.172L589.956 352.492C590.359 352.485 590.762 352.47 591.158 352.455C591.919 352.425 592.673 352.388 593.427 352.343C593.726 352.328 594.032 352.305 594.331 352.29C594.465 352.283 594.607 352.268 594.741 352.26C595.212 352.23 595.675 352.201 596.145 352.163C596.63 352.126 597.123 352.081 597.608 352.029C598.235 351.969 598.862 351.901 599.49 351.834C599.982 351.782 600.475 351.722 600.96 351.662C601.026 351.656 601.09 351.646 601.154 351.632C601.625 351.58 602.095 351.52 602.558 351.453C603.11 351.378 603.655 351.296 604.2 351.213C604.26 351.206 604.312 351.199 604.372 351.191C605.313 351.042 606.261 350.892 607.209 350.72C608.202 350.54 609.195 350.346 610.18 350.144C610.546 350.069 610.904 349.987 611.27 349.912C611.472 349.867 611.681 349.83 611.875 349.785C612.181 349.718 612.48 349.651 612.778 349.576C612.83 349.568 612.89 349.553 612.942 349.546C613.361 349.456 613.771 349.351 614.189 349.247C615.025 349.045 615.847 348.835 616.668 348.611C617.034 348.521 617.399 348.424 617.75 348.327C617.855 348.297 617.959 348.267 618.056 348.237C619.572 347.811 621.075 347.36 622.565 346.884C623.222 346.674 623.872 346.457 624.521 346.225C625.917 345.747 627.301 345.243 628.672 344.715C629.038 344.58 629.404 344.431 629.77 344.289C630.307 344.072 630.845 343.855 631.375 343.638C631.853 343.436 632.33 343.234 632.816 343.025C633.055 342.927 633.293 342.823 633.532 342.718C634.249 342.404 634.966 342.082 635.675 341.761C636.153 341.536 636.623 341.32 637.093 341.095C637.84 340.736 638.579 340.37 639.318 340.003C639.505 339.906 639.684 339.809 639.863 339.719C640.333 339.48 640.804 339.233 641.282 338.994C642.036 338.59 642.79 338.186 643.536 337.767C643.79 337.633 644.036 337.491 644.29 337.349C645.111 336.885 645.925 336.414 646.731 335.935C648.516 334.866 650.275 333.749 652.01 332.585C652.443 332.301 652.876 332.002 653.301 331.71C654.107 331.157 654.899 330.588 655.69 330.02C655.772 329.96 655.847 329.9 655.929 329.848C656.325 329.556 656.72 329.265 657.116 328.965C657.937 328.345 658.751 327.716 659.565 327.073C659.58 327.066 659.602 327.043 659.624 327.029C659.99 326.737 660.356 326.445 660.714 326.154C661.827 325.249 662.924 324.329 663.999 323.379C664.529 322.923 665.052 322.452 665.567 321.981C665.955 321.629 666.343 321.278 666.724 320.919C667.493 320.193 668.247 319.475 668.994 318.742C669.367 318.384 669.733 318.01 670.106 317.636C670.472 317.262 670.845 316.888 671.211 316.506C671.338 316.379 671.465 316.245 671.592 316.11C671.965 315.714 672.338 315.31 672.711 314.914C673.032 314.57 673.346 314.211 673.667 313.852C674.205 313.253 674.75 312.655 675.28 312.049C675.308 312.015 675.337 311.983 675.369 311.952C675.399 311.915 675.429 311.885 675.451 311.855H675.444C686.295 299.285 694.358 284.55 699.099 268.625C703.839 252.699 705.149 235.947 702.942 219.477C700.735 203.006 695.062 187.193 686.297 173.084C677.532 158.974 665.875 146.89 652.099 137.632Z" fill="#6C63FF"/>
<g opacity="0.15">
<path d="M500.991 49.3812C502.479 54.736 504.718 59.8523 507.641 64.5771C502.748 60.3665 498.376 55.5839 494.619 50.3314C496.729 49.9316 498.853 49.6148 500.991 49.3812Z" fill="black"/>
<path d="M428.144 132.194C422.618 135.215 417.452 138.853 412.744 143.038C420.694 133.621 426.504 122.585 429.772 110.695C429.811 110.552 429.851 110.408 429.89 110.265L430.001 109.86C433.928 95.6689 441.547 82.7771 452.079 72.5032L452.907 71.695L453.491 72.6938C456.72 78.1932 460.584 83.2928 465.003 87.8873C458.231 107.027 445.055 122.957 428.144 132.194Z" fill="black"/>
<path d="M467.061 81.2554L466.95 81.6601C466.911 81.8032 466.871 81.947 466.832 82.0898C466.614 82.8768 466.382 83.6578 466.143 84.4354C463.781 78.3079 462.122 71.9312 461.199 65.4283L461.112 64.8765L461.565 64.5523C467.246 60.4631 473.416 57.1033 479.931 54.5511C474.082 62.6102 469.722 71.6547 467.061 81.2554Z" fill="black"/>
<path d="M391.084 160.799C395.974 158.118 400.551 154.9 404.73 151.204C396.382 160.94 390.398 172.48 387.247 184.919C384.097 197.359 383.864 210.361 386.568 222.906C389.273 235.45 394.84 247.198 402.834 257.227C410.829 267.256 421.033 275.294 432.647 280.712L433.025 280.886L433.401 280.716C439.675 277.877 446.289 275.865 453.079 274.73C448.841 276.893 444.89 279.58 441.32 282.727L440.112 283.773L441.627 284.274C442.935 284.708 444.244 285.106 445.515 285.46C452.986 287.545 460.711 288.58 468.466 288.536C503.705 288.31 539.217 296.471 574.015 312.791C579.983 315.586 586.173 317.878 592.521 319.643C620.184 327.358 649.717 324.583 675.465 311.848C660.948 328.665 641.967 341.013 620.725 347.456C599.483 353.899 576.853 354.173 555.461 348.247C549.113 346.482 542.923 344.191 536.956 341.396C502.157 325.076 466.645 316.915 431.407 317.141C423.651 317.185 415.927 316.149 408.455 314.065C407.184 313.711 405.875 313.312 404.568 312.879L403.052 312.378L404.26 311.332C407.831 308.184 411.781 305.498 416.019 303.335C409.229 304.47 402.615 306.482 396.341 309.321L395.965 309.491L395.587 309.317C381.64 302.813 369.771 292.556 361.304 279.689C352.838 266.822 348.107 251.852 347.64 236.448C347.173 221.045 350.988 205.814 358.659 192.456C366.331 179.098 377.556 168.138 391.084 160.799Z" fill="black"/>
</g>
</g>
<defs>
<clipPath id="clip0_1_92">
<rect width="704" height="595" fill="white"/>
</clipPath>
</defs>
</svg>
